<svg xmlns="http://www.w3.org/2000/svg" viewBox="0 0 62 35"><path fill="#363567" d="M1.8 0h58.3v35H1.8z"/><path fill="#F90" d="M53.5 17.5c0 7.4-6 13.5-13.5 13.5s-13.5-6-13.5-13.5C26.5 10.1 32.6 4 40 4c7.5 0 13.5 6.1 13.5 13.5z"/><path fill="#C00" d="M21.9 4C14.5 4 8.5 10.1 8.5 17.5S14.5 31 22 31c3.5 0 6.7-1.3 9.1-3.5.5-.4 1-.9 1.4-1.4h-2.8c-.4-.4-.7-.9-1-1.4h4.8c.3-.5.5-1 .8-1.4H28c-.2-.5-.4-.9-.6-1.4h7.4c.4-1.3.7-2.8.7-4.3 0-1-.1-2-.3-2.9H27c.1-.5.2-1 .4-1.4h7.5c-.2-.5-.4-1-.6-1.4H28c.2-.5.5-1 .8-1.4h4.8c-.3-.5-.7-1-1-1.4H30c.1-.7.6-1.1 1-1.5C28.6 5.4 25.5 4 21.9 4z"/><path fill="#FCB340" d="M52.2 24.5c.1 0 .1 0 .2.1.1 0 .1.1.2.2 0 .1.1.1.1.2s0 .2-.1.2c0 .1-.1.1-.2.2-.1 0-.1.1-.2.1s-.2 0-.2-.1c-.1 0-.1-.1-.2-.2 0-.1-.1-.1-.1-.2s0-.2.1-.2c0-.1.1-.1.2-.2 0 0 .1-.1.2-.1m0 .1H52c-.1 0-.1.1-.1.1 0 .1-.1.1-.1.2v.2c0 .1.1.1.1.1h.4c.1 0 .1-.1.1-.1v-.2c0-.1 0-.1-.1-.2 0-.1-.1-.1-.1-.1.1 0 0 0 0 0m-.2.6v-.5h.4v.2h-.1s0 .1.1.1l.1.1h-.1V25c0-.1-.1-.1-.1-.1h-.1l-.2.3m0-.3h.2v-.1H52v.1"/><g><path fill="#006" d="M26.456 21.394l.2-1.2h-.4c-.5 0-.6-.3-.5-.5l.5-2.4h.8l.2-1.4h-.7l.1-.8h-1.5s-.9 4.7-.9 5.3c0 .8.5 1.2 1.1 1.2.5-.1.9-.2 1.1-.2z"/><path fill="#006" d="M26.856 18.994c0 2 1.3 2.5 2.5 2.5 1 0 1.6-.3 1.6-.3l.3-1.4s-.9.4-1.6.4c-1.5 0-1.3-1.1-1.3-1.1h3s.2-.9.2-1.3c0-1-.5-2.1-2.1-2.1-1.5 0-2.6 1.6-2.6 3.3zm2.5-2c.8 0 .7.9.7 1h-1.6c0-.1.2-1 .9-1zM38.456 21.394l.3-1.6s-.7.3-1.2.3c-1 0-1.4-.8-1.4-1.6 0-1.7.9-2.6 1.8-2.6.7 0 1.3.4 1.3.4l.2-1.5s-.7-.5-1.4-.5c-2.2 0-3.5 1.6-3.5 4.3 0 1.8 1 3 2.7 3 .5 0 1.2-.2 1.2-.2zM18.556 15.794c-1 0-1.7.3-1.7.3l-.2 1.2s.6-.3 1.6-.3c.5 0 .9.1.9.5v.4h-.6c-1.4 0-2.5.5-2.5 2.1 0 1.3.9 1.6 1.4 1.6 1 0 1.4-.6 1.4-.6v.5h1.3l.6-3.9c-.2-1.8-1.7-1.8-2.2-1.8zm.2 3.2c0 .2-.1 1.4-.9 1.4-.5-.1-.6-.4-.6-.6 0-.4.2-.9 1.3-.9.2 0 .2.1.2.1zM21.856 21.494c.3 0 2.2.1 2.2-1.8 0-1.8-1.7-1.4-1.7-2.1 0-.4.3-.5.8-.5.2 0 1 .1 1 .1l.1-1.3s-.5-.1-1.3-.1c-1.1 0-2.1.4-2.1 1.9 0 1.6 1.8 1.5 1.8 2.2 0 .5-.5.5-.9.5-.7 0-1.3-.2-1.3-.2l-.2 1.1c0 .1.4.2 1.6.2zM50.356 14.594l-.3 1.9s-.5-.7-1.4-.7c-1.6 0-2.4 1.6-2.4 3.4 0 1.2.6 2.3 1.8 2.3.9 0 1.3-.6 1.3-.6l-.1.5h1.4l1.1-6.8h-1.4zm-.7 3.8c0 .8-.4 1.8-1.1 1.8-.5 0-.8-.4-.8-1.1 0-1.1.5-1.8 1.1-1.8.6-.1.8.2.8 1.1zM10.756 21.494l.9-5.2.1 5.2h1l1.8-5.2-.8 5.2h1.5l1.1-6.8h-2.3l-1.4 4.2v-4.2h-2.1l-1.1 6.8h1.3z"/><path fill="#006" d="M32.856 21.494c.4-2.4.6-4.3 1.8-3.9.2-.9.6-1.7.8-2.1 0 0-.1-.1-.4-.1-.6 0-1.5 1.3-1.5 1.3l.1-.8h-1.3l-.9 5.6h1.4zM41.456 15.794c-1 0-1.7.3-1.7.3l-.2 1.2s.6-.3 1.6-.3c.5 0 .9.1.9.5v.4h-.6c-1.4 0-2.5.5-2.5 2.1 0 1.3.9 1.6 1.4 1.6 1 0 1.4-.6 1.4-.6v.5h1.3l.6-3.9c-.2-1.8-1.7-1.8-2.2-1.8zm.2 3.2c0 .2-.1 1.4-.9 1.4-.4 0-.6-.3-.6-.5 0-.4.2-.9 1.3-.9.3-.1.2 0 .2 0zM44.956 21.494c.2-1.8.7-4.2 1.8-3.9.2-.9 0-.9-.4-.9h-.8l.1-.8h-1.3l-.9 5.6h1.5z"/><g><path fill="#FFF" d="M26.8 20.9l.2-1.2h-.4c-.5 0-.6-.3-.5-.5l.4-2.5h.8l.2-1.3h-.7l.1-.8h-1.4s-.9 4.7-.9 5.3c0 .8.5 1.2 1.1 1.2.6 0 1-.1 1.1-.2zM27.3 18.6c0 2 1.3 2.5 2.5 2.5 1 0 1.5-.2 1.5-.2l.3-1.4s-.8.4-1.5.4c-1.5 0-1.3-1.1-1.3-1.1h2.9s.2-.9.2-1.3c0-1-.5-2.1-2-2.1-1.6-.1-2.6 1.5-2.6 3.2zm2.5-2c.8 0 .7.9.7 1h-1.6c-.1-.1.1-1 .9-1zM38.9 20.9l.3-1.6s-.7.4-1.2.4c-1 0-1.4-.8-1.4-1.6 0-1.7.9-2.6 1.8-2.6.7 0 1.3.4 1.3.4l.2-1.5s-.9-.4-1.6-.4c-1.7 0-3.3 1.4-3.3 4.1 0 1.8.9 3 2.6 3 .5 0 1.3-.2 1.3-.2zM18.9 15.3c-1 0-1.7.3-1.7.3l-.2 1.3s.6-.3 1.6-.3c.5 0 .9.1.9.5v.4h-.6c-1.2 0-2.5.5-2.5 2.1 0 1.3.9 1.6 1.4 1.6 1 0 1.4-.7 1.5-.7v.5h1.3l.6-3.9c-.3-1.7-1.8-1.8-2.3-1.8zm.3 3.2c0 .2-.2 1.4-1 1.4-.4 0-.6-.3-.6-.5 0-.4.2-.9 1.3-.9h.3zM22.2 21.1c.3 0 2.2.1 2.2-1.8 0-1.8-1.7-1.4-1.7-2.1 0-.4.3-.5.8-.5.2 0 1 .1 1 .1l.2-1.3s-.5-.1-1.3-.1c-1.1 0-2.1.4-2.1 1.9 0 1.6 1.8 1.5 1.8 2.2 0 .5-.5.5-.9.5-.7 0-1.3-.2-1.3-.2l-.2 1.2c0-.1.3.1 1.5.1zM50.7 14.2l-.3 1.9s-.5-.7-1.4-.7c-1.3 0-2.4 1.6-2.4 3.4 0 1.2.6 2.3 1.8 2.3.9 0 1.3-.6 1.3-.6v.5h1.4l1.1-6.8h-1.5zm-.6 3.7c0 .8-.4 1.8-1.1 1.8-.5 0-.8-.4-.8-1.1 0-1.1.5-1.8 1.1-1.8.5-.1.8.3.8 1.1zM11.1 21l.9-5.2.1 5.2h1l1.8-5.2-.7 5.2h1.5l1.1-6.8h-2.3l-1.4 4.2-.1-4.2h-2.1L9.8 21h1.3zM33.3 21c.4-2.4.5-4.3 1.5-3.9.2-.9.3-1.3.5-1.7H35c-.6 0-1.1.9-1.1.9l.1-.8h-1.3l-.9 5.5h1.5zM42.206 15.3c-1 0-1.7.3-1.7.3l-.2 1.2s.6-.3 1.6-.3c.5 0 .9.1.9.5v.4h-.6c-1.2 0-2.5.5-2.5 2.1 0 1.3.9 1.6 1.4 1.6 1 0 1.4-.7 1.5-.7v.5h1.3l.6-3.9c-.4-1.6-1.8-1.7-2.3-1.7zm.3 3.2c0 .2-.2 1.4-1 1.4-.4 0-.6-.3-.6-.5 0-.4.2-.9 1.3-.9h.3z"/><path fill="#FFF" d="M45.286 21c.4-2.4.5-4.3 1.5-3.9.2-.9.4-1.3.5-1.7h-.3c-.6 0-1.1.9-1.1.9l.1-.8h-1.3l-.9 5.6h1.5zM52.2 20.2c.1 0 .1 0 .2.1.1 0 .1.1.2.2 0 .1.1.1.1.2s0 .2-.1.2c0 .1-.1.1-.2.2-.1 0-.1.1-.2.1s-.2 0-.2-.1c-.1 0-.1-.1-.2-.2 0-.1-.1-.1-.1-.2s0-.2.1-.2c0-.1.1-.1.2-.2 0-.1.1-.1.2-.1m0 0H52c-.1 0-.1.1-.1.1 0 .1-.1.1-.1.2v.2c0 .1.1.1.1.1h.4c.1 0 .1-.1.1-.1v-.2c0-.1 0-.1-.1-.2 0-.1-.1-.1-.1-.1.1 0 0 0 0 0m-.2.6v-.5h.4v.2h-.1s0 .1.1.1l.1.1h-.1v-.1c0-.1-.1-.1-.1-.1h-.1l-.2.3m0-.2h.2v-.1H52v.1"/></g></g></svg>