<svg xmlns="http://www.w3.org/2000/svg" viewBox="237 14.5 62 35"><radialGradient id="a" cx="248.062" cy="51.432" r="57.877" gradientTransform="matrix(1.02 0 0 -.57 -4.14 49.7)" gradientUnits="userSpaceOnUse"><stop offset="0" stop-color="#9DD5F6"/><stop offset=".071" stop-color="#98D3F5"/><stop offset=".158" stop-color="#89CEF3"/><stop offset=".252" stop-color="#70C6EF"/><stop offset=".351" stop-color="#4EBBEA"/><stop offset=".455" stop-color="#23ADE3"/><stop offset=".5" stop-color="#0DA6E0"/><stop offset="1" stop-color="#2E77BC"/></radialGradient><path fill="url(#a)" d="M299.3 14.5h-62.6v35h62.6V37.9c.2-.2.4-.5.4-.8 0-.4-.1-.6-.4-.8"/><path fill="#FFF" d="M242.7 26.6l-1.2-2.9-1.2 2.9m28.6-1.1c-.2.1-.5.1-.9.1h-2.1V24h2.1c.3 0 .6 0 .8.1.2.1.4.3.4.6 0 .4-.1.6-.3.8zm15 1.1l-1.2-2.9-1.2 2.9h2.4zm-28 3.1h-1.8V24l-2.5 5.7h-1.5l-2.5-5.7v5.7H244l-.7-1.6h-3.6l-.7 1.6h-1.9l3.1-7.3h2.6l2.9 6.9v-6.9h2.8l2.3 4.9 2.1-4.9h2.9l.1 7.3zm7.1 0h-5.8v-7.3h5.8V24h-4.1v1.3h4v1.5h-4v1.4h4.1v1.5zm8.1-5.3c0 1.2-.8 1.8-1.2 1.9.4.1.7.4.9.6.2.4.3.7.3 1.3v1.4h-1.7v-.9c0-.4 0-1.1-.3-1.4-.3-.3-.6-.3-1.3-.3h-1.9v2.6h-1.7v-7.3h4c.9 0 1.5 0 2.1.3.5.6.8 1 .8 1.8zm2.8 5.3h-1.8v-7.3h1.8v7.3zm20.5 0H292l-3.3-5.4v5.4h-3.5l-.7-1.6h-3.6l-.7 1.6h-2c-.8 0-1.9-.2-2.5-.8-.6-.6-.9-1.4-.9-2.8 0-1.1.2-2.1.9-2.8.6-.6 1.4-.8 2.6-.8h1.7V24h-1.6c-.6 0-1 .1-1.3.4-.3.3-.5.9-.5 1.6 0 .8.2 1.3.5 1.7.3.3.8.4 1.2.4h.8l2.4-5.7h2.6l2.9 6.9v-6.9h2.6l3 5.1v-5.1h1.8v7.3zm-57.2 1.5h3l.7-1.6h1.5l.7 1.6h5.8V30l.5 1.2h3l.5-1.3v1.2h14.5v-2.6h.3c.2 0 .3 0 .3.3v2.3h7.5v-.6c.6.3 1.5.6 2.8.6h3.2l.7-1.6h1.5l.7 1.6h6.1v-1.5l.9 1.5h4.9V21h-4.8v1.2l-.7-1.2h-4.9v1.2l-.6-1.2h-6.7c-1.1 0-2.1.2-2.9.6V21h-4.6v.6c-.5-.4-1.2-.6-2-.6H252l-1.1 2.6-1.2-2.6h-5.3v1.2l-.6-1.2h-4.5l-2.1 4.8v5.4zM298.9 36.5h-3.2c-.3 0-.5 0-.7.1-.2.1-.3.3-.3.5 0 .3.2.5.4.5.2.1.4.1.7.1h.9c.9 0 1.6.2 2 .6l.2.2m0 2.8c-.4.6-1.2.9-2.4.9h-3.3v-1.6h3.3c.3 0 .6 0 .7-.2.1-.1.2-.3.2-.5s-.1-.4-.2-.5c-.1-.1-.3-.2-.6-.2-1.6-.1-3.7.1-3.7-2.2 0-1.1.7-2.2 2.5-2.2h3.5v-1.4h-3.2c-1 0-1.7.2-2.2.6v-.6h-4.7c-.8 0-1.6.2-2.1.6v-.6h-8.5v.6c-.7-.5-1.8-.6-2.3-.6h-5.6v.6c-.5-.5-1.7-.6-2.4-.6h-6.3l-1.4 1.5-1.3-1.5h-9.3v10.1h9.2l1.5-1.6 1.4 1.6h5.7v-2.4h.6c.7 0 1.6 0 2.4-.4v2.7h4.7V41h.2c.3 0 .3 0 .3.3v2.3h14.2c.9 0 1.8-.2 2.4-.6v.6h4.5c.9 0 1.8-.1 2.5-.5v-1.8h-.3zm-7-2.9c.3.3.5.8.5 1.5 0 1.6-1 2.3-2.7 2.3h-3.4v-1.6h3.4c.3 0 .6 0 .7-.2.1-.1.2-.3.2-.5s-.1-.4-.2-.5c-.1-.1-.3-.2-.6-.2-1.6-.1-3.7.1-3.7-2.2 0-1.1.7-2.2 2.5-2.2h3.5v1.5h-3.2c-.3 0-.5 0-.7.1-.2.1-.3.3-.3.5 0 .3.2.5.4.5.2.1.4.1.7.1h.9c1 .3 1.6.5 2 .9zm-15.6-.5c-.2.1-.5.1-.9.1h-2.1v-1.6h2.1c.3 0 .6 0 .8.1.2.1.4.3.4.7.1.4-.1.6-.3.7zm1 .9c.4.1.7.4.8.6.2.4.3.7.3 1.3v1.4h-1.7v-.9c0-.4 0-1.1-.3-1.4-.3-.3-.6-.3-1.3-.3h-1.9v2.6h-1.7V35h4c.9 0 1.5 0 2.1.3.5.3.9.8.9 1.6.1 1.2-.7 1.8-1.2 1.9zm2.2-3.8h5.8v1.5h-4.1v1.3h4v1.5h-4v1.4h4.1v1.5h-5.8V35zm-11.7 3.3h-2.2v-1.8h2.3c.6 0 1.1.3 1.1.9-.1.6-.5.9-1.2.9zm-3.9 3.3l-2.7-3 2.7-2.9v5.9zm-6.9-.9h-4.3v-1.4h3.8v-1.5h-3.8v-1.3h4.3l1.9 2.1-1.9 2.1zm13.8-3.3c0 2-1.5 2.4-3 2.4h-2.2v2.4h-3.4l-2.1-2.4-2.2 2.4H251V35h7l2.1 2.4 2.2-2.4h5.5c1.4 0 3 .3 3 2.4z"/></svg>