<svg xmlns="http://www.w3.org/2000/svg" xmlns:xlink="http://www.w3.org/1999/xlink" viewBox="0 0 62 35"><path fill="#FFF" d="M60.2 34.8h-59V.6h59.1v34.2h-.1z"/><path fill="#F7B600" d="M1.2 29.3h59.1v5.6H1.2v-5.6z"/><path fill="#1A1F71" d="M1.2 6.1h59.1V.6H1.2v5.5z"/><defs><path id="a" d="M-40.4-74.2h141.7v183.3H-40.4z"/></defs><clipPath id="b"><use xlink:href="#a" overflow="visible"/></clipPath><g clip-path="url(#b)"><path fill="#1A1F71" d="M30.112 11.192l-2.8 12.9h-3.3l2.8-12.9h3.3zm14.1 8.4l1.8-4.8 1 4.8h-2.8zm3.7 4.5h3.1l-2.7-12.9h-2.9c-.6 0-1.2.4-1.4.9l-5 11.9h3.5l.6-1.9h4.3c.1 0 .5 2 .5 2zm-8.7-4.2c0-3.4-4.7-3.6-4.6-5.1 0-.5.5-.9 1.4-1.1.5-.1 1.8-.1 3.2.6l.6-2.7c-.8-.3-1.9-.6-3.1-.6-3.3 0-5.6 1.8-5.6 4.3 0 1.9 1.7 2.9 2.9 3.5 1.3.6 1.8 1 1.8 1.6 0 .8-1 1.2-1.9 1.3-1.7 0-2.7-.5-3.4-.8l-.6 2.8c.7.4 2.2.6 3.7.6 3.3 0 5.6-1.7 5.6-4.4m-13.8-8.7l-5.4 12.9h-3.5l-2.7-10.3c-.2-.6-.3-.8-.8-1.1-.8-.5-2.1-.8-3.2-1.1l.1-.4h5.6c.7 0 1.4.5 1.6 1.3l1.4 7.4 3.4-8.8 3.5.1z"/></g></svg>